<mxfile host="app.diagrams.net" agent="Mozilla/5.0 (Windows NT 10.0; Win64; x64) AppleWebKit/537.36 (KHTML, like Gecko) Chrome/137.0.0.0 Safari/537.36" version="27.1.4">
  <diagram name="Page-1" id="tswiIXVw7CxllUqIJU0e">
    <mxGraphModel dx="2153" dy="659" grid="1" gridSize="10" guides="1" tooltips="1" connect="1" arrows="1" fold="1" page="1" pageScale="1" pageWidth="850" pageHeight="1100" math="0" shadow="0">
      <root>
        <mxCell id="0" />
        <mxCell id="1" parent="0" />
        <mxCell id="9JuaSqdfv4WhwbICXBzF-12" style="edgeStyle=orthogonalEdgeStyle;rounded=0;orthogonalLoop=1;jettySize=auto;html=1;entryX=0;entryY=0.5;entryDx=0;entryDy=0;" edge="1" parent="1" source="9JuaSqdfv4WhwbICXBzF-2" target="9JuaSqdfv4WhwbICXBzF-4">
          <mxGeometry relative="1" as="geometry" />
        </mxCell>
        <mxCell id="9JuaSqdfv4WhwbICXBzF-2" value="User" style="rounded=0;whiteSpace=wrap;html=1;fillColor=#008a00;fontColor=#ffffff;strokeColor=#005700;" vertex="1" parent="1">
          <mxGeometry x="-70" y="170" width="120" height="60" as="geometry" />
        </mxCell>
        <mxCell id="9JuaSqdfv4WhwbICXBzF-3" value="Acknowledgement Email" style="rounded=0;whiteSpace=wrap;html=1;fillColor=#008a00;fontColor=#ffffff;strokeColor=#005700;" vertex="1" parent="1">
          <mxGeometry x="340" y="110" width="120" height="60" as="geometry" />
        </mxCell>
        <mxCell id="9JuaSqdfv4WhwbICXBzF-13" style="edgeStyle=orthogonalEdgeStyle;rounded=0;orthogonalLoop=1;jettySize=auto;html=1;entryX=0;entryY=0.5;entryDx=0;entryDy=0;" edge="1" parent="1">
          <mxGeometry relative="1" as="geometry">
            <mxPoint x="245" y="200" as="sourcePoint" />
            <mxPoint x="335" y="140" as="targetPoint" />
            <Array as="points">
              <mxPoint x="295" y="200" />
              <mxPoint x="295" y="140" />
            </Array>
          </mxGeometry>
        </mxCell>
        <mxCell id="9JuaSqdfv4WhwbICXBzF-14" style="edgeStyle=orthogonalEdgeStyle;rounded=0;orthogonalLoop=1;jettySize=auto;html=1;entryX=0;entryY=0.5;entryDx=0;entryDy=0;" edge="1" parent="1" source="9JuaSqdfv4WhwbICXBzF-4" target="9JuaSqdfv4WhwbICXBzF-5">
          <mxGeometry relative="1" as="geometry" />
        </mxCell>
        <mxCell id="9JuaSqdfv4WhwbICXBzF-4" value="DSAR Web Form" style="rounded=0;whiteSpace=wrap;html=1;fillColor=#008a00;fontColor=#ffffff;strokeColor=#005700;" vertex="1" parent="1">
          <mxGeometry x="130" y="170" width="120" height="60" as="geometry" />
        </mxCell>
        <mxCell id="9JuaSqdfv4WhwbICXBzF-5" value="Identity Verification" style="rhombus;whiteSpace=wrap;html=1;fillColor=light-dark(#e51400, #f01400);strokeColor=#B20000;fontColor=#ffffff;" vertex="1" parent="1">
          <mxGeometry x="340" y="230" width="120" height="120" as="geometry" />
        </mxCell>
        <mxCell id="9JuaSqdfv4WhwbICXBzF-7" value="DSAR Ticket DB" style="shape=cylinder3;whiteSpace=wrap;html=1;boundedLbl=1;backgroundOutline=1;size=15;fillColor=#008a00;fontColor=#ffffff;strokeColor=#005700;" vertex="1" parent="1">
          <mxGeometry x="550" y="240" width="70" height="100" as="geometry" />
        </mxCell>
        <mxCell id="9JuaSqdfv4WhwbICXBzF-17" style="edgeStyle=orthogonalEdgeStyle;rounded=0;orthogonalLoop=1;jettySize=auto;html=1;entryX=0.5;entryY=1;entryDx=0;entryDy=0;" edge="1" parent="1" source="9JuaSqdfv4WhwbICXBzF-8" target="9JuaSqdfv4WhwbICXBzF-9">
          <mxGeometry relative="1" as="geometry" />
        </mxCell>
        <mxCell id="9JuaSqdfv4WhwbICXBzF-8" value="CRM / HR Systems" style="shape=cylinder3;whiteSpace=wrap;html=1;boundedLbl=1;backgroundOutline=1;size=15;fillColor=#008a00;fontColor=#ffffff;strokeColor=#005700;" vertex="1" parent="1">
          <mxGeometry x="670" y="240" width="70" height="100" as="geometry" />
        </mxCell>
        <mxCell id="9JuaSqdfv4WhwbICXBzF-18" style="edgeStyle=orthogonalEdgeStyle;rounded=0;orthogonalLoop=1;jettySize=auto;html=1;entryX=0;entryY=0.5;entryDx=0;entryDy=0;" edge="1" parent="1" source="9JuaSqdfv4WhwbICXBzF-9" target="9JuaSqdfv4WhwbICXBzF-10">
          <mxGeometry relative="1" as="geometry" />
        </mxCell>
        <mxCell id="9JuaSqdfv4WhwbICXBzF-9" value="Privacy Team" style="rounded=0;whiteSpace=wrap;html=1;fillColor=#008a00;fontColor=#ffffff;strokeColor=#005700;" vertex="1" parent="1">
          <mxGeometry x="790" y="160" width="120" height="60" as="geometry" />
        </mxCell>
        <mxCell id="9JuaSqdfv4WhwbICXBzF-19" style="edgeStyle=orthogonalEdgeStyle;rounded=0;orthogonalLoop=1;jettySize=auto;html=1;" edge="1" parent="1" source="9JuaSqdfv4WhwbICXBzF-10">
          <mxGeometry relative="1" as="geometry">
            <mxPoint x="-20" y="240" as="targetPoint" />
            <Array as="points">
              <mxPoint x="1020" y="410" />
              <mxPoint x="-19" y="410" />
              <mxPoint x="-19" y="240" />
            </Array>
          </mxGeometry>
        </mxCell>
        <mxCell id="9JuaSqdfv4WhwbICXBzF-10" value="Final Response Email" style="rounded=0;whiteSpace=wrap;html=1;fillColor=#008a00;fontColor=#ffffff;strokeColor=#005700;" vertex="1" parent="1">
          <mxGeometry x="960" y="160" width="120" height="60" as="geometry" />
        </mxCell>
        <mxCell id="9JuaSqdfv4WhwbICXBzF-15" style="edgeStyle=orthogonalEdgeStyle;rounded=0;orthogonalLoop=1;jettySize=auto;html=1;entryX=0;entryY=0.5;entryDx=0;entryDy=0;entryPerimeter=0;" edge="1" parent="1" source="9JuaSqdfv4WhwbICXBzF-5" target="9JuaSqdfv4WhwbICXBzF-7">
          <mxGeometry relative="1" as="geometry" />
        </mxCell>
        <mxCell id="9JuaSqdfv4WhwbICXBzF-16" style="edgeStyle=orthogonalEdgeStyle;rounded=0;orthogonalLoop=1;jettySize=auto;html=1;entryX=0;entryY=0.5;entryDx=0;entryDy=0;entryPerimeter=0;" edge="1" parent="1" source="9JuaSqdfv4WhwbICXBzF-7" target="9JuaSqdfv4WhwbICXBzF-8">
          <mxGeometry relative="1" as="geometry" />
        </mxCell>
      </root>
    </mxGraphModel>
  </diagram>
</mxfile>
